<svg xmlns="http://www.w3.org/2000/svg" viewBox="0 0 32 32">
  <rect width="32" height="32" rx="6" fill="#4285F4"/>
  <path d="M9 8h14a1 1 0 0 1 1 1v15a1 1 0 0 1-1 1H9a1 1 0 0 1-1-1V9a1 1 0 0 1 1-1Z" fill="none" stroke="white" stroke-width="1.8" stroke-linejoin="round"/>
  <path d="M15 25v-4h2v4" fill="none" stroke="white" stroke-width="1.8" stroke-linejoin="round"/>
  <circle cx="12" cy="12" r="0.9" fill="white"/>
  <circle cx="16" cy="12" r="0.9" fill="white"/>
  <circle cx="20" cy="12" r="0.9" fill="white"/>
  <circle cx="12" cy="16" r="0.9" fill="white"/>
  <circle cx="16" cy="16" r="0.9" fill="white"/>
  <circle cx="20" cy="16" r="0.9" fill="white"/>
</svg>
